<svg width="16" height="16" viewBox="0 0 16 16" fill="none" xmlns="http://www.w3.org/2000/svg">
<path d="M2.24434 7.95965C1.58072 6.80251 1.26029 5.85764 1.06709 4.89985C0.781336 3.4833 1.43527 2.09956 2.51857 1.21663C2.97641 0.843468 3.50126 0.970963 3.772 1.45668L4.38323 2.55324C4.8677 3.4224 5.10994 3.85698 5.06189 4.31771C5.01385 4.77845 4.68716 5.1537 4.03378 5.9042L2.24434 7.95965ZM2.24434 7.95965C3.58755 10.3018 5.69549 12.4109 8.04035 13.7557M8.04035 13.7557C9.19749 14.4193 10.1424 14.7397 11.1002 14.9329C12.5167 15.2187 13.9004 14.5647 14.7834 13.4814C15.1565 13.0236 15.029 12.4987 14.5433 12.228L13.4468 11.6168C12.5776 11.1323 12.143 10.8901 11.6823 10.9381C11.2215 10.9862 10.8463 11.3128 10.0958 11.9662L8.04035 13.7557Z" stroke="#063D30" stroke-width="2" stroke-linejoin="round"/>
<path d="M9.40002 4.3823C10.3963 4.80537 11.1947 5.60374 11.6178 6.6M9.85784 1C12.3339 1.71453 14.2854 3.66597 15 6.14194" stroke="#063D30" stroke-width="2" stroke-linecap="round"/>
</svg>
