<svg width="31" height="31" viewBox="0 0 31 31" fill="none" xmlns="http://www.w3.org/2000/svg">
<path d="M0.374526 15.4353C0.239976 23.1437 15.3724 15.6971 15.3724 15.6971C15.3724 15.6971 0.509076 7.72689 0.374526 15.4353Z" fill="#121018"/>
<path d="M30.3696 15.9586C30.2351 23.667 15.3717 15.6968 15.3717 15.6968C15.3717 15.6968 30.5042 8.25021 30.3696 15.9586Z" fill="#121018"/>
<path d="M7.64139 28.8508C14.1009 32.8189 15.3722 15.6967 15.3722 15.6967C15.3722 15.6967 1.18191 24.8826 7.64139 28.8508Z" fill="#121018"/>
<path d="M23.1033 2.54315C29.5628 6.51128 15.3725 15.6972 15.3725 15.6972C15.3725 15.6972 16.6438 -1.42497 23.1033 2.54315Z" fill="#121018"/>
<path d="M22.6396 29.1127C16.0456 32.853 15.3726 15.6969 15.3726 15.6969C15.3726 15.6969 29.2337 25.3724 22.6396 29.1127Z" fill="#121018"/>
<path d="M8.1057 2.28136C1.51167 6.02164 15.3728 15.6972 15.3728 15.6972C15.3728 15.6972 14.6997 -1.45891 8.1057 2.28136Z" fill="#121018"/>
</svg>
