<svg width="18" height="18" viewBox="0 0 18 18" fill="none" xmlns="http://www.w3.org/2000/svg">
<path d="M1.66602 8.99935C1.66602 5.54238 1.66602 3.8139 2.73996 2.73996C3.8139 1.66602 5.54238 1.66602 8.99935 1.66602C12.4563 1.66602 14.1848 1.66602 15.2587 2.73996C16.3327 3.8139 16.3327 5.54238 16.3327 8.99935C16.3327 12.4563 16.3327 14.1848 15.2587 15.2587C14.1848 16.3327 12.4563 16.3327 8.99935 16.3327C5.54238 16.3327 3.8139 16.3327 2.73996 15.2587C1.66602 14.1848 1.66602 12.4563 1.66602 8.99935Z" stroke="#073D30" stroke-width="1.5" stroke-linejoin="round"/>
<path d="M12.4747 9.00103C12.4747 10.9195 10.9195 12.4747 9.00103 12.4747C7.08256 12.4747 5.52734 10.9195 5.52734 9.00103C5.52734 7.08256 7.08256 5.52734 9.00103 5.52734C10.9195 5.52734 12.4747 7.08256 12.4747 9.00103Z" stroke="#073D30" stroke-width="1.5"/>
<path d="M13.2512 4.75391L13.2422 4.75391" stroke="#073D30" stroke-width="2" stroke-linecap="round" stroke-linejoin="round"/>
</svg>
