<svg width="19" height="16" viewBox="0 0 19 16" fill="none" xmlns="http://www.w3.org/2000/svg">
<path d="M9.23529 15C10.7256 15 12.1548 14.8528 13.4793 14.5828C15.1337 14.2455 15.9609 14.0769 16.7157 13.1064C17.4706 12.1359 17.4706 11.0218 17.4706 8.79351V7.20649C17.4706 4.97825 17.4706 3.86413 16.7157 2.8936C15.9609 1.92308 15.1337 1.75446 13.4793 1.41722C12.1548 1.14723 10.7256 1 9.23529 1C7.74496 1 6.31579 1.14723 4.99128 1.41722C3.33689 1.75446 2.5097 1.92308 1.75485 2.8936C1 3.86413 1 4.97825 1 7.20649V8.79351C1 11.0218 1 12.1359 1.75485 13.1064C2.5097 14.0769 3.33689 14.2455 4.99128 14.5828C6.31579 14.8528 7.74496 15 9.23529 15Z" stroke="#2B2B2D" stroke-width="1.5"/>
<path d="M12.4982 8.25769C12.376 8.75662 11.7257 9.11495 10.4251 9.83162C9.01062 10.6111 8.30336 11.0008 7.73049 10.8506C7.53646 10.7998 7.35775 10.7104 7.2077 10.5891C6.76465 10.2309 6.76465 9.48726 6.76465 8.00003C6.76465 6.5128 6.76465 5.76919 7.2077 5.411C7.35775 5.28968 7.53646 5.20026 7.73049 5.14941C8.30336 4.99926 9.01061 5.38899 10.4251 6.16844C11.7257 6.8851 12.376 7.24344 12.4982 7.74236C12.5397 7.91212 12.5397 8.08793 12.4982 8.25769Z" stroke="#2B2B2D" stroke-width="1.5" stroke-linejoin="round"/>
</svg>
