<svg width="16" height="15" viewBox="0 0 16 15" fill="none" xmlns="http://www.w3.org/2000/svg">
<path d="M5.02396 0.000122102C5.52795 0.0152479 6.01595 0.102089 6.48874 0.26077H6.53594C6.56794 0.27577 6.59194 0.292349 6.60794 0.307348C6.78474 0.3634 6.95194 0.426557 7.11194 0.513398L7.41593 0.647606C7.53593 0.710763 7.67993 0.828392 7.75993 0.876549C7.83993 0.923128 7.92793 0.971285 7.99993 1.02576C8.88872 0.355505 9.96791 -0.00764645 11.0799 0.000122102C11.5847 0.000122102 12.0887 0.0705102 12.5679 0.229192C15.5206 1.17654 16.5846 4.37386 15.6958 7.16855C15.1919 8.59669 14.3679 9.90008 13.2887 10.9651C11.7439 12.4414 10.0487 13.7519 8.22393 14.8808L8.02393 15L7.81593 14.8729C5.98475 13.7519 4.27997 12.4414 2.72078 10.9572C1.6488 9.89219 0.824004 8.59669 0.31201 7.16855C-0.591981 4.37386 0.472008 1.17654 3.45678 0.212613C3.68877 0.133667 3.92797 0.0784048 4.16797 0.0476158H4.26397C4.48877 0.0152479 4.71196 0.000122102 4.93596 0.000122102H5.02396ZM12.1519 2.49494C11.8239 2.38363 11.4639 2.5581 11.3439 2.88967C11.2319 3.22125 11.4079 3.5844 11.7439 3.70203C12.2567 3.8915 12.5999 4.38965 12.5999 4.94148V4.96596C12.5847 5.14674 12.6399 5.32121 12.7519 5.45542C12.8639 5.58963 13.0319 5.66779 13.2079 5.68436C13.5359 5.67568 13.8159 5.41595 13.8399 5.08358V4.98964C13.8639 3.8836 13.1847 2.88178 12.1519 2.49494Z" fill="#FF5555"/>
</svg>
